<svg width="20" height="20" viewBox="0 0 20 20" fill="none" xmlns="http://www.w3.org/2000/svg">
<g clip-path="url(#clip0_17_344)">
<path d="M19.1668 2.5C18.3688 3.0629 17.4853 3.49343 16.5502 3.775C16.0483 3.19793 15.3813 2.78891 14.6394 2.60327C13.8974 2.41764 13.1164 2.46433 12.4019 2.73705C11.6874 3.00976 11.0739 3.49534 10.6443 4.1281C10.2148 4.76086 9.98991 5.51028 10.0002 6.275V7.10834C8.53569 7.14631 7.08456 6.82151 5.776 6.16287C4.46745 5.50424 3.34209 4.5322 2.50016 3.33334C2.50016 3.33334 -0.833171 10.8333 6.66683 14.1667C4.9506 15.3316 2.90613 15.9158 0.833496 15.8333C8.3335 20 17.5002 15.8333 17.5002 6.25C17.4994 6.01788 17.4771 5.78633 17.4335 5.55834C18.284 4.71958 18.8842 3.6606 19.1668 2.5V2.5Z" stroke="white" stroke-width="2" stroke-linecap="round" stroke-linejoin="round"/>
</g>
<defs>
<clipPath id="clip0_17_344">
<rect width="20" height="20" fill="white"/>
</clipPath>
</defs>
</svg>
