<svg width="694" height="398" viewBox="0 0 694 398" fill="none" xmlns="http://www.w3.org/2000/svg">
<g clip-path="url(#clip0_13_2)">
<path d="M52.2141 397.801L51.4837 396.426C61.2766 391.034 73.4643 384.325 79.8301 373.313C86.1054 362.458 86.2462 347.718 80.1976 334.845C75.0501 323.889 65.5945 314.073 52.8531 306.459C50.3399 304.957 47.7017 303.534 45.1503 302.157C38.9832 298.83 32.6062 295.389 27.3479 290.507C20.1057 283.784 14.6261 272.501 18.7102 262.451C20.0534 259.243 22.2532 256.483 25.0597 254.484C27.8663 252.485 31.1672 251.327 34.5877 251.142L34.6743 252.703C31.5408 252.872 28.5165 253.932 25.9448 255.763C23.3731 257.593 21.3569 260.121 20.125 263.059C16.3298 272.398 21.5368 282.996 28.3827 289.352C33.4972 294.1 39.7869 297.494 45.8694 300.776C48.4353 302.16 51.0887 303.592 53.6307 305.111C66.6372 312.884 76.303 322.932 81.583 334.17C87.849 347.506 87.6846 362.809 81.1537 374.106C74.571 385.493 62.1747 392.318 52.2141 397.801Z" fill="#F1F1F1"/>
<path d="M44.321 259.382C51.7424 259.382 57.7586 256.407 57.7586 252.738C57.7586 249.068 51.7424 246.093 44.321 246.093C36.8996 246.093 30.8834 249.068 30.8834 252.738C30.8834 256.407 36.8996 259.382 44.321 259.382Z" fill="#F1F1F1"/>
<path d="M55.071 303.157C62.4924 303.157 68.5086 300.183 68.5086 296.513C68.5086 292.843 62.4924 289.869 55.071 289.869C47.6496 289.869 41.6334 292.843 41.6334 296.513C41.6334 300.183 47.6496 303.157 55.071 303.157Z" fill="#F1F1F1"/>
<path d="M30.4995 310.193C37.9209 310.193 43.9371 307.218 43.9371 303.548C43.9371 299.879 37.9209 296.904 30.4995 296.904C23.0781 296.904 17.0619 299.879 17.0619 303.548C17.0619 307.218 23.0781 310.193 30.4995 310.193Z" fill="#F1F1F1"/>
<path d="M68.8926 346.933C76.3139 346.933 82.3302 343.958 82.3302 340.288C82.3302 336.619 76.3139 333.644 68.8926 333.644C61.4712 333.644 55.455 336.619 55.455 340.288C55.455 343.958 61.4712 346.933 68.8926 346.933Z" fill="#F1F1F1"/>
<path d="M95.7678 346.933C103.189 346.933 109.205 343.958 109.205 340.288C109.205 336.619 103.189 333.644 95.7678 333.644C88.3464 333.644 82.3302 336.619 82.3302 340.288C82.3302 343.958 88.3464 346.933 95.7678 346.933Z" fill="#F1F1F1"/>
<path d="M694 12.0612H261.85V220.82H694V12.0612Z" fill="#E6E6E6"/>
<path d="M681.643 29.9626H274.207V204.137H681.643V29.9626Z" fill="white"/>
<path d="M693.816 0H261.666V18.6899H693.816V0Z" fill="#F53333"/>
<path d="M275.309 12.1091C277.188 12.1091 278.711 10.5581 278.711 8.64495C278.711 6.73178 277.188 5.18085 275.309 5.18085C273.429 5.18085 271.906 6.73178 271.906 8.64495C271.906 10.5581 273.429 12.1091 275.309 12.1091Z" fill="white"/>
<path d="M288.224 12.1091C290.104 12.1091 291.627 10.5581 291.627 8.64495C291.627 6.73178 290.104 5.18085 288.224 5.18085C286.345 5.18085 284.822 6.73178 284.822 8.64495C284.822 10.5581 286.345 12.1091 288.224 12.1091Z" fill="white"/>
<path d="M301.141 12.1091C303.02 12.1091 304.544 10.5581 304.544 8.64495C304.544 6.73178 303.02 5.18085 301.141 5.18085C299.262 5.18085 297.738 6.73178 297.738 8.64495C297.738 10.5581 299.262 12.1091 301.141 12.1091Z" fill="white"/>
<path d="M456.443 71.2974C456.005 71.2974 455.586 71.4742 455.277 71.789C454.968 72.1037 454.794 72.5306 454.794 72.9756C454.794 73.4207 454.968 73.8476 455.277 74.1623C455.586 74.4771 456.005 74.6539 456.443 74.6539H546.9C547.337 74.6539 547.756 74.4771 548.066 74.1623C548.375 73.8476 548.548 73.4207 548.548 72.9756C548.548 72.5306 548.375 72.1037 548.066 71.789C547.756 71.4742 547.337 71.2974 546.9 71.2974H456.443Z" fill="#E6E6E6"/>
<path d="M456.443 81.3677C456.006 81.3686 455.588 81.5459 455.279 81.8605C454.971 82.1751 454.798 82.6014 454.798 83.0459C454.798 83.4904 454.971 83.9167 455.279 84.2313C455.588 84.5459 456.006 84.7232 456.443 84.7241H502.623C503.059 84.7232 503.478 84.5459 503.786 84.2313C504.095 83.9167 504.268 83.4904 504.268 83.0459C504.268 82.6014 504.095 82.1751 503.786 81.8605C503.478 81.5459 503.059 81.3686 502.623 81.3677H456.443Z" fill="#E6E6E6"/>
<path d="M454.166 130.109C453.729 130.109 453.31 130.286 453.001 130.601C452.692 130.916 452.518 131.343 452.518 131.788C452.518 132.233 452.692 132.66 453.001 132.974C453.31 133.289 453.729 133.466 454.166 133.466H623.774C624.211 133.466 624.631 133.289 624.94 132.974C625.249 132.66 625.423 132.233 625.423 131.788C625.423 131.343 625.249 130.916 624.94 130.601C624.631 130.286 624.211 130.109 623.774 130.109H454.166Z" fill="#E6E6E6"/>
<path d="M454.166 140.18C453.73 140.181 453.311 140.358 453.003 140.673C452.695 140.987 452.521 141.413 452.521 141.858C452.521 142.302 452.695 142.729 453.003 143.043C453.311 143.358 453.73 143.535 454.166 143.536H579.497C579.934 143.535 580.352 143.358 580.661 143.043C580.969 142.729 581.142 142.302 581.142 141.858C581.142 141.413 580.969 140.987 580.661 140.673C580.352 140.358 579.934 140.181 579.497 140.18H454.166Z" fill="#E6E6E6"/>
<path d="M454.166 150.022C453.73 150.023 453.311 150.2 453.003 150.515C452.695 150.83 452.521 151.256 452.521 151.7C452.521 152.145 452.695 152.571 453.003 152.886C453.311 153.2 453.73 153.378 454.166 153.379H623.774C624.211 153.378 624.629 153.2 624.938 152.886C625.246 152.571 625.419 152.145 625.419 151.7C625.419 151.256 625.246 150.83 624.938 150.515C624.629 150.2 624.211 150.023 623.774 150.022H454.166Z" fill="#E6E6E6"/>
<path d="M454.166 160.092C453.73 160.093 453.311 160.271 453.003 160.585C452.695 160.9 452.521 161.326 452.521 161.771C452.521 162.215 452.695 162.641 453.003 162.956C453.311 163.271 453.73 163.448 454.166 163.449H579.497C579.934 163.448 580.352 163.271 580.661 162.956C580.969 162.641 581.142 162.215 581.142 161.771C581.142 161.326 580.969 160.9 580.661 160.585C580.352 160.271 579.934 160.093 579.497 160.092H454.166Z" fill="#E6E6E6"/>
<path d="M365.494 136.92C373.422 136.92 379.849 130.378 379.849 122.307C379.849 114.236 373.422 107.694 365.494 107.694C357.566 107.694 351.14 114.236 351.14 122.307C351.14 130.378 357.566 136.92 365.494 136.92Z" fill="#A0616A"/>
<path d="M360.949 110.616C360.949 110.616 367.647 112.443 371.117 113.174C374.586 113.904 374.227 111.834 374.227 111.834C374.227 111.834 378.772 112.443 378.533 111.956C378.294 111.469 380.447 108.911 377.935 105.989C375.423 103.066 376.141 100.874 376.141 100.874H373.987L373.389 100.022H370.04C370.04 100.022 366.337 96.7158 359.758 97.69C353.178 98.6642 345.398 101.239 344.68 105.258C344.583 105.803 344.454 106.409 344.306 107.048C342.507 114.78 346.329 122.015 350.294 128.86C351.268 130.542 355.981 134.21 355.861 131.693C355.74 129.177 351.618 123.525 354.489 123.159C357.36 122.794 362.264 115.366 360.949 110.616Z" fill="#2F2E41"/>
<path d="M357.351 169.549C354.58 169.324 351.832 168.864 349.136 168.175L349.287 165.261L350.544 142.09L350.555 141.912H375.841L379.809 163.247L380.345 166.126C379.297 166.54 378.238 166.931 377.156 167.275C377.145 167.275 377.145 167.287 377.133 167.287C375.632 167.761 374.108 168.175 372.571 168.519C370.528 168.967 368.461 169.292 366.381 169.49C364.772 169.653 363.157 169.732 361.54 169.727C360.144 169.727 358.736 169.668 357.351 169.549Z" fill="#F53333"/>
<path d="M341.095 165.427C340.047 164.965 339.035 164.467 338.034 163.946L337.604 163.721C337.313 163.567 337.01 163.401 336.72 163.235C336.324 163.01 335.939 162.785 335.567 162.56C335.206 162.347 334.834 162.122 334.474 161.897C334.45 161.885 334.439 161.873 334.416 161.873C333.159 161.056 331.925 160.214 330.738 159.302C330.541 159.148 330.343 158.994 330.145 158.84L329.935 155.429L330.238 155.239L350.544 142.09L350.823 141.912L350.846 141.9L353.708 141.912V152.763C355.326 155.144 356.42 160.132 357.095 166.659C357.188 167.595 357.269 168.554 357.351 169.549C354.58 169.324 351.832 168.864 349.136 168.175C348.845 168.116 348.565 168.045 348.274 167.962C346.579 167.51 344.908 166.964 343.271 166.327C342.77 166.138 342.282 165.936 341.793 165.735L341.746 165.711C341.537 165.616 341.304 165.522 341.095 165.427Z" fill="#2F2E41"/>
<path d="M336.72 163.235C336.324 163.01 335.939 162.785 335.567 162.56C335.207 162.347 334.834 162.122 334.474 161.897C334.45 161.885 334.439 161.873 334.416 161.873C333.159 161.056 331.925 160.214 330.738 159.302C330.541 159.148 330.343 158.994 330.145 158.84C330.052 158.757 329.959 158.686 329.854 158.603C329.109 158.023 328.388 157.419 327.689 156.779C327.655 156.755 327.631 156.72 327.596 156.696C328.301 156.144 329.092 155.716 329.935 155.429L330.762 155.677L336.65 157.478L336.684 159.907L336.72 163.235Z" fill="#2F2E41"/>
<path d="M386.303 163.271C385.953 163.46 385.604 163.65 385.256 163.828C385.174 163.875 385.104 163.911 385.035 163.946C384.569 164.183 384.115 164.42 383.65 164.645C383.638 164.657 383.615 164.657 383.615 164.669C383.591 164.681 383.557 164.692 383.533 164.704C382.486 165.214 381.427 165.687 380.345 166.126C379.297 166.54 378.238 166.931 377.157 167.275C377.145 167.275 377.145 167.287 377.133 167.287C375.632 167.761 374.108 168.175 372.571 168.519C372.554 167.546 372.68 166.575 372.944 165.64L372.955 165.474L373.956 148.984L372.618 141.912L376.458 141.332L397.578 152.905C397.578 152.905 395.251 155.275 385.698 160.321C384.853 160.767 386.093 162.252 386.303 163.271Z" fill="#2F2E41"/>
<path d="M366.125 166.647C364.612 166.789 363.076 166.86 361.54 166.86C360.051 166.86 358.573 166.801 357.095 166.659C357.188 167.595 357.269 168.554 357.351 169.549C358.736 169.668 360.144 169.727 361.54 169.727C363.157 169.732 364.772 169.653 366.381 169.49C368.461 169.292 370.529 168.967 372.571 168.519C372.554 167.546 372.68 166.575 372.944 165.64L372.955 165.474C370.709 166.031 368.426 166.423 366.125 166.647ZM410.099 100.166C407.64 92.975 403.67 86.4168 398.465 80.9485C393.261 75.4801 386.948 71.2333 379.965 68.5042C372.983 65.775 365.5 64.6292 358.038 65.1466C350.576 65.664 343.315 67.8322 336.76 71.5C330.206 75.1678 324.516 80.247 320.088 86.3832C315.66 92.5195 312.601 99.5652 311.122 107.029C309.644 114.493 309.782 122.195 311.528 129.599C313.274 137.003 316.585 143.929 321.231 149.896C321.697 150.489 322.174 151.081 322.663 151.65C322.709 151.697 322.732 151.733 322.767 151.768C323.968 153.179 325.247 154.519 326.596 155.784C326.922 156.092 327.259 156.4 327.596 156.696C327.631 156.72 327.655 156.755 327.689 156.779C328.388 157.419 329.109 158.023 329.854 158.603C329.959 158.686 330.052 158.757 330.144 158.84C330.343 158.994 330.541 159.148 330.738 159.302C331.925 160.214 333.159 161.056 334.416 161.873C334.439 161.873 334.45 161.885 334.473 161.897C334.834 162.122 335.206 162.347 335.567 162.56C335.94 162.785 336.324 163.01 336.72 163.235C337.01 163.401 337.313 163.567 337.604 163.721L338.034 163.946C339.035 164.467 340.047 164.965 341.095 165.427C341.304 165.522 341.537 165.616 341.746 165.711L341.793 165.735C342.282 165.936 342.77 166.138 343.271 166.327C344.908 166.964 346.578 167.51 348.274 167.962C348.565 168.045 348.845 168.116 349.136 168.175C351.832 168.864 354.58 169.324 357.351 169.549C358.736 169.668 360.144 169.727 361.54 169.727C363.157 169.732 364.772 169.653 366.381 169.49C368.461 169.292 370.528 168.967 372.571 168.519C374.108 168.175 375.632 167.761 377.133 167.287C377.145 167.287 377.145 167.275 377.156 167.275C378.238 166.931 379.297 166.54 380.345 166.126C381.427 165.687 382.486 165.214 383.533 164.704C383.557 164.692 383.591 164.681 383.615 164.669C383.615 164.657 383.638 164.657 383.65 164.645C384.115 164.42 384.569 164.183 385.034 163.946C385.104 163.911 385.174 163.875 385.255 163.828C385.604 163.65 385.953 163.46 386.303 163.271C386.326 163.259 386.337 163.247 386.361 163.235C387.28 162.714 388.188 162.169 389.084 161.589C389.328 161.435 389.573 161.281 389.817 161.103C390.178 160.878 390.527 160.629 390.864 160.38C391.318 160.061 391.771 159.729 392.214 159.385C392.361 159.289 392.501 159.182 392.633 159.065C393.715 158.236 394.762 157.36 395.763 156.436C403.352 149.552 408.765 140.531 411.316 130.515C413.868 120.499 413.445 109.937 410.099 100.166L410.099 100.166ZM394.89 153.379C393.631 154.586 392.31 155.725 390.934 156.791C390.632 157.028 390.317 157.265 390.003 157.478C389.7 157.715 389.398 157.94 389.084 158.153C388.816 158.343 388.549 158.532 388.269 158.71C388.246 158.734 388.211 158.746 388.188 158.769C387.99 158.911 387.781 159.042 387.583 159.172C386.966 159.563 386.326 159.954 385.698 160.321C385.546 160.404 385.407 160.499 385.256 160.582C385.174 160.629 385.092 160.677 384.999 160.724C384.65 160.925 384.301 161.103 383.952 161.293C383.906 161.328 383.848 161.34 383.801 161.375C383.783 161.378 383.767 161.387 383.754 161.399C383.51 161.529 383.266 161.648 383.021 161.766C382.812 161.873 382.614 161.98 382.404 162.074C381.555 162.489 380.682 162.88 379.809 163.247C378.89 163.626 377.959 163.97 377.017 164.29C376.784 164.373 376.539 164.467 376.295 164.538C375.189 164.894 374.084 165.214 372.955 165.474C370.709 166.031 368.426 166.423 366.125 166.647C364.612 166.789 363.076 166.86 361.54 166.86C360.051 166.86 358.573 166.801 357.095 166.659C354.459 166.413 351.847 165.946 349.287 165.261C349.194 165.237 349.089 165.214 348.996 165.19C346.896 164.632 344.838 163.92 342.84 163.058C342.736 163.01 342.619 162.975 342.526 162.927C342.409 162.88 342.305 162.844 342.212 162.797C342.095 162.75 341.991 162.702 341.886 162.655C341.013 162.264 340.164 161.837 339.315 161.399L338.919 161.186C338.162 160.783 337.417 160.368 336.684 159.906C336.429 159.764 336.161 159.599 335.905 159.433C335.614 159.255 335.323 159.065 335.043 158.876C334.974 158.828 334.904 158.781 334.834 158.734C334.183 158.284 333.52 157.833 332.891 157.348C332.449 157.016 332.018 156.696 331.588 156.353C331.308 156.139 331.029 155.914 330.762 155.677C330.587 155.547 330.413 155.393 330.238 155.239C330.005 155.038 329.772 154.836 329.54 154.623C329.179 154.327 328.842 153.995 328.516 153.687C327.205 152.458 325.966 151.153 324.804 149.778C324.408 149.328 324.035 148.878 323.675 148.404C323.591 148.31 323.513 148.212 323.442 148.108C317.584 140.579 314.005 131.477 313.141 121.913C312.277 112.348 314.167 102.735 318.579 94.245C322.99 85.7552 329.734 78.7561 337.987 74.1015C346.24 69.4469 355.645 67.3381 365.055 68.0324C374.465 68.7267 383.473 72.1941 390.98 78.0114C398.487 83.8288 404.169 91.7447 407.332 100.793C410.496 109.842 411.004 119.633 408.794 128.97C406.585 138.308 401.754 146.789 394.89 153.379L394.89 153.379Z" fill="#3F3D56"/>
<path d="M125.496 388.27L134.91 388.269L139.389 351.304L125.495 351.305L125.496 388.27Z" fill="#A0616A"/>
<path d="M123.095 385.141L141.635 385.14H141.635C144.769 385.14 147.774 386.408 149.989 388.663C152.205 390.919 153.45 393.978 153.45 397.168V397.558L123.096 397.56L123.095 385.141Z" fill="#2F2E41"/>
<path d="M160.818 388.27L170.232 388.269L174.71 351.304L160.817 351.305L160.818 388.27Z" fill="#A0616A"/>
<path d="M158.417 385.141L176.956 385.14H176.957C180.091 385.14 183.096 386.408 185.311 388.663C187.527 390.919 188.772 393.978 188.772 397.168V397.558L158.418 397.56L158.417 385.141Z" fill="#2F2E41"/>
<path d="M96.9324 242.203C97.7028 241.363 98.283 240.361 98.6321 239.268C98.9812 238.175 99.0907 237.018 98.9528 235.877C98.8149 234.737 98.433 233.641 97.8341 232.667C97.2352 231.693 96.4338 230.864 95.4863 230.24L102.027 203.111L88.5953 207.983L84.4433 232.998C83.518 234.688 83.2338 236.665 83.6445 238.554C84.0553 240.443 85.1324 242.113 86.6719 243.248C88.2113 244.382 90.1061 244.903 91.9972 244.71C93.8882 244.517 95.6442 243.625 96.9324 242.203Z" fill="#9E616A"/>
<path d="M196.863 239.858C196.092 239.018 195.512 238.016 195.163 236.923C194.814 235.83 194.705 234.673 194.842 233.532C194.98 232.392 195.362 231.296 195.961 230.322C196.56 229.348 197.361 228.519 198.309 227.894L191.768 200.766L205.2 205.638L209.352 230.653C210.277 232.343 210.561 234.32 210.151 236.209C209.74 238.098 208.663 239.768 207.123 240.903C205.584 242.037 203.689 242.557 201.798 242.365C199.907 242.172 198.151 241.28 196.863 239.858Z" fill="#9E616A"/>
<path d="M109.318 223.186L122.367 378.796L141.459 377.024L149.1 256.759L155.902 304.379L157.264 380.021L174.541 378.848L184.134 297.473L181.781 218.664L116.192 211.902L109.318 223.186Z" fill="#2F2E41"/>
<path d="M145.212 81.5848C156.147 81.5848 165.012 72.5604 165.012 61.4281C165.012 50.2958 156.147 41.2713 145.212 41.2713C134.277 41.2713 125.412 50.2958 125.412 61.4281C125.412 72.5604 134.277 81.5848 145.212 81.5848Z" fill="#A0616A"/>
<path d="M138.942 45.3027C138.942 45.3027 148.182 47.8222 152.967 48.8301C157.752 49.838 157.257 46.9824 157.257 46.9824C157.257 46.9824 163.527 47.8222 163.197 47.1503C162.867 46.4784 165.837 42.951 162.372 38.9197C158.907 34.8883 159.897 31.8648 159.897 31.8648H156.927L156.102 30.689H151.482C151.482 30.689 146.374 26.1293 137.299 27.4731C128.224 28.8168 117.492 32.3687 116.502 37.9118C116.368 38.6637 116.191 39.499 115.986 40.3812C113.504 51.0465 118.777 61.0255 124.246 70.4667C125.59 72.7869 132.091 77.8465 131.924 74.3752C131.758 70.9038 126.072 63.1078 130.032 62.6039C133.992 62.1 140.757 51.8536 138.942 45.3027Z" fill="#2F2E41"/>
<path d="M124.608 88.4703H159.478L184.134 221.028C184.134 221.028 162.639 222.899 150.353 227.589C138.067 232.279 117.643 216.875 117.643 216.875L124.608 88.4703Z" fill="#F53333"/>
<path d="M128.962 103.44V88.4703L125.013 88.4458L96.1672 107.117L102.427 209.413C102.427 209.413 109.835 243.54 121.072 243.186C132.308 242.832 140.972 121.17 128.962 103.44Z" fill="#2F2E41"/>
<path d="M105.433 109.943L96.1673 107.117C96.1673 107.117 89.3079 109.161 89.3079 116.196C89.3079 123.232 83.3978 223.186 83.3978 223.186L102.173 224.875L106.201 174.042L105.433 109.943Z" fill="#2F2E41"/>
<path d="M156.88 98.2171L155.033 88.4703L160.335 87.6641L179.532 95.4812C179.532 95.4812 196.809 224.071 189.13 227.98C181.451 231.888 176.267 228.86 176.267 228.86C176.267 228.86 151.011 134.019 155.481 121.199L156.88 98.2171Z" fill="#2F2E41"/>
<path d="M166.094 97.4354L169.37 95.9837C169.37 95.9837 178.986 91.1327 184.442 100.929C189.898 110.724 209.095 220.163 209.095 220.163L193.299 223.186L181.491 183.801L166.094 97.4354Z" fill="#2F2E41"/>
<path d="M293.324 398H0.767863C0.564213 398 0.368903 397.918 0.224901 397.771C0.080899 397.624 0 397.426 0 397.218C0 397.011 0.080899 396.812 0.224901 396.666C0.368903 396.519 0.564213 396.437 0.767863 396.437H293.324C293.527 396.437 293.723 396.519 293.867 396.666C294.011 396.812 294.091 397.011 294.091 397.218C294.091 397.426 294.011 397.624 293.867 397.771C293.723 397.918 293.527 398 293.324 398Z" fill="#CACACA"/>
</g>
<defs>
<clipPath id="clip0_13_2">
<rect width="694" height="398" fill="white"/>
</clipPath>
</defs>
</svg>
