<svg width="485" height="416" viewBox="0 0 485 416" fill="none" xmlns="http://www.w3.org/2000/svg">
<g clip-path="url(#clip0_17_241)">
<path d="M119.712 379.588L120.698 401.338L120.698 401.339C120.865 405.015 119.628 408.61 117.261 411.333C114.894 414.055 111.59 415.683 108.075 415.857L107.645 415.879L106.03 380.267L119.712 379.588Z" fill="#2F2E41"/>
<path d="M415.341 342.831C405.437 363.047 392.876 382.599 376.983 400.294C376.63 400.694 376.273 401.083 375.913 401.48L338.257 382.832C338.488 382.432 338.74 381.982 339.012 381.491C355.188 352.541 452.831 175.943 449.746 135.946C450.105 139.245 461.679 248.338 415.341 342.831Z" fill="#E6E6E6"/>
<path d="M384.247 403.892C383.72 404.205 383.179 404.512 382.635 404.809L354.387 390.82C354.782 390.527 355.242 390.18 355.771 389.79C364.425 383.291 390.159 363.789 415.34 342.831C442.401 320.309 468.828 296.109 472.752 284.558C471.955 287.207 447.187 367.723 384.247 403.892Z" fill="#E6E6E6"/>
<path d="M46.9905 415.01C71.0677 415.01 90.586 394.593 90.586 369.408C90.586 344.222 71.0677 323.805 46.9905 323.805C22.9134 323.805 3.39502 344.222 3.39502 369.408C3.39502 394.593 22.9134 415.01 46.9905 415.01Z" fill="#F53333"/>
<path d="M64.4533 350.271H29.5275C27.9842 350.273 26.5047 350.915 25.4134 352.057C24.3221 353.198 23.7083 354.746 23.7065 356.36V382.455C23.7083 384.07 24.3221 385.617 25.4134 386.759C26.5046 387.9 27.9842 388.543 29.5275 388.544H64.4534C65.9967 388.543 67.4763 387.9 68.5675 386.759C69.6588 385.617 70.2727 384.07 70.2744 382.455V356.36C70.2726 354.746 69.6588 353.198 68.5675 352.057C67.4762 350.915 65.9966 350.273 64.4533 350.271ZM64.4533 353.751C64.6618 353.751 64.8694 353.78 65.0712 353.835L46.9945 368.919L29.0235 353.804C29.1893 353.768 29.3582 353.751 29.5275 353.751H64.4533ZM64.4533 385.065H29.5275C28.8661 385.064 28.232 384.789 27.7643 384.3C27.2966 383.811 27.0336 383.147 27.0328 382.455V356.594L45.9484 372.503C46.2429 372.751 46.6093 372.886 46.9873 372.887C47.3652 372.888 47.7321 372.754 48.0276 372.507L66.9481 356.719V382.455C66.9474 383.147 66.6843 383.811 66.2166 384.3C65.7489 384.789 65.1148 385.064 64.4533 385.065Z" fill="white"/>
<path d="M215.236 303.57L224.99 303.654C225.977 303.662 226.954 303.445 227.853 303.018C228.751 302.591 229.55 301.964 230.193 301.181C230.837 300.398 231.309 299.478 231.577 298.484C231.845 297.49 231.903 296.448 231.747 295.428C231.578 294.331 231.165 293.291 230.542 292.391C229.919 291.491 229.103 290.756 228.159 290.247C227.215 289.737 226.17 289.466 225.107 289.456C224.045 289.446 222.995 289.697 222.043 290.189L212.844 294.937L181.381 302.276L167.901 287.861L160.159 301.2L178.348 315.9L215.236 303.57Z" fill="#FFB8B8"/>
<path d="M213.407 408.99L201.915 411.302C194.065 385.418 185.559 360.905 185.56 341.946C174.45 354.88 160.674 362.279 144.452 364.603L146.22 335.936L159.48 328.538L179.776 318.739C181.553 317.882 183.47 317.386 185.424 317.278C189.224 317.069 192.963 318.337 195.922 320.839C198.881 323.341 200.851 326.9 201.452 330.83L213.407 408.99Z" fill="#2F2E41"/>
<path d="M158.376 361.135L153.795 364.776C151.825 366.342 149.499 367.342 147.045 367.676C144.592 368.011 142.098 367.669 139.811 366.683C126.691 356.396 117.37 359.431 108.922 374.958C98.7897 362.996 96.2898 345.719 105.333 327.844L155.502 329L165.669 325.764L158.376 361.135Z" fill="#2F2E41"/>
<path d="M141.667 414.706C138.792 415.631 135.698 415.469 132.926 414.247C130.154 413.025 127.882 410.823 126.507 408.024C121.998 403.87 118.194 397.923 114.894 390.691C112.527 385.385 110.494 379.923 108.809 374.34C106.526 366.964 110.343 358.906 117.449 356.699C117.66 356.633 117.874 356.571 118.091 356.513C127.576 353.966 137.317 359.689 140.559 369.355L149.987 397.462C150.544 399.122 150.783 400.881 150.69 402.638C150.597 404.395 150.175 406.116 149.446 407.702C148.717 409.288 147.697 410.709 146.444 411.882C145.191 413.056 143.728 413.96 142.141 414.542C141.984 414.6 141.826 414.654 141.667 414.706Z" fill="#2F2E41"/>
<path opacity="0.2" d="M113.289 387.49C113.289 387.49 124.34 400.436 126.55 407.834L113.289 387.49Z" fill="black"/>
<path d="M70.4307 326.391L66.7323 335.833C66.358 336.789 66.1875 337.818 66.2327 338.849C66.2778 339.881 66.5375 340.889 66.9936 341.805C67.4497 342.721 68.0913 343.521 68.8735 344.151C69.6558 344.781 70.5599 345.224 71.5229 345.451C72.5594 345.695 73.636 345.68 74.6663 345.41C75.6966 345.139 76.6517 344.619 77.4547 343.891C78.2578 343.164 78.8864 342.25 79.29 341.222C79.6936 340.194 79.8608 339.081 79.7783 337.973L78.9814 327.275L84.1561 293.993L101.959 286.258L92.9956 273.783L73.191 285.986L70.4307 326.391Z" fill="#FFB8B8"/>
<path d="M158.818 327.844C146.117 350.159 120.799 358.8 99.1134 341.326C102.928 328.216 115.244 291.981 107.288 290.594C90.3943 298.004 90.3698 280.605 87.21 271.897L125.666 257.101L146.441 263.112L150.7 264.693C153.471 265.722 155.875 267.613 157.588 270.114C159.301 272.615 160.241 275.604 160.281 278.68C151.554 291.868 145.094 305.936 158.818 327.844Z" fill="#F53333"/>
<path d="M163.679 309.812L148.43 296.634L153.513 265.887L174.288 289.005L163.679 309.812Z" fill="#F53333"/>
<path d="M416.721 98.5837H414.541V36.1398C414.541 26.555 410.901 17.3627 404.422 10.5851C397.942 3.80758 389.155 0 379.992 0H253.517C244.354 0 235.566 3.80758 229.087 10.5851C222.608 17.3627 218.968 26.555 218.968 36.1398V378.713C218.968 388.297 222.608 397.49 229.087 404.267C235.566 411.045 244.354 414.852 253.517 414.852H379.991C389.154 414.852 397.942 411.045 404.421 404.267C410.9 397.49 414.54 388.297 414.54 378.713V143.032H416.72L416.721 98.5837Z" fill="#3F3D56"/>
<path d="M381.386 9.40148H364.877C365.636 11.3486 365.926 13.4613 365.722 15.5534C365.517 17.6455 364.823 19.6527 363.701 21.3982C362.58 23.1437 361.065 24.574 359.291 25.5629C357.517 26.5518 355.537 27.069 353.527 27.069H281.072C279.061 27.0688 277.082 26.5515 275.308 25.5626C273.534 24.5738 272.019 23.1437 270.898 21.3985C269.777 19.6532 269.083 17.6463 268.878 15.5545C268.673 13.4627 268.963 11.3502 269.722 9.40319H254.3C247.457 9.40319 240.894 12.2467 236.055 17.3083C231.216 22.3699 228.498 29.2348 228.498 36.3929V378.461C228.498 385.619 231.216 392.484 236.055 397.546C240.894 402.607 247.457 405.451 254.3 405.451H381.381C388.224 405.451 394.787 402.607 399.626 397.546C404.465 392.484 407.183 385.619 407.183 378.461V378.461V36.3912C407.183 29.2331 404.465 22.3681 399.626 17.3066C394.787 12.245 388.224 9.40146 381.381 9.40146H381.386L381.386 9.40148Z" fill="white"/>
<path d="M318.061 386.335C325.886 386.335 332.23 379.699 332.23 371.514C332.23 363.329 325.886 356.693 318.061 356.693C310.236 356.693 303.893 363.329 303.893 371.514C303.893 379.699 310.236 386.335 318.061 386.335Z" fill="#E6E6E6"/>
<path d="M260.582 234.452C259.243 234.452 258.153 235.753 258.153 237.352C258.153 238.951 259.243 240.252 260.582 240.252H375.098C376.438 240.252 377.527 238.951 377.527 237.352C377.527 235.753 376.438 234.452 375.098 234.452H260.582Z" fill="#E6E6E6"/>
<path d="M260.582 302.855C259.243 302.855 258.153 304.157 258.153 305.756C258.153 307.355 259.243 308.656 260.582 308.656H375.098C376.438 308.656 377.527 307.355 377.527 305.756C377.527 304.157 376.438 302.855 375.098 302.855H260.582Z" fill="#E6E6E6"/>
<path d="M260.582 251.853C259.243 251.853 258.153 253.155 258.153 254.754C258.153 256.353 259.243 257.654 260.582 257.654H309.859C311.198 257.654 312.288 256.353 312.288 254.754C312.288 253.155 311.198 251.853 309.859 251.853H260.582Z" fill="#E6E6E6"/>
<path d="M260.582 268.44C259.243 268.44 258.153 269.742 258.153 271.341C258.153 272.94 259.243 274.241 260.582 274.241H375.098C376.438 274.241 377.527 272.94 377.527 271.341C377.527 269.742 376.438 268.44 375.098 268.44H260.582Z" fill="#E6E6E6"/>
<path d="M260.582 285.842C259.243 285.842 258.153 287.143 258.153 288.742C258.153 290.341 259.243 291.642 260.582 291.642H309.859C311.198 291.642 312.288 290.341 312.288 288.742C312.288 287.143 311.198 285.842 309.859 285.842H260.582Z" fill="#E6E6E6"/>
<path d="M282.201 102.393H353.487C354.274 102.394 355.029 102.721 355.586 103.304C356.143 103.886 356.456 104.676 356.457 105.5V183.159C356.456 183.982 356.143 184.772 355.586 185.355C355.029 185.937 354.274 186.265 353.487 186.266H282.201C281.413 186.265 280.658 185.937 280.101 185.355C279.545 184.772 279.231 183.982 279.23 183.159V105.5C279.231 104.676 279.545 103.886 280.101 103.304C280.658 102.721 281.413 102.394 282.201 102.393Z" fill="#F53333"/>
<path d="M338.298 170.251C338.563 170.252 338.825 170.197 339.07 170.092C339.315 169.986 339.538 169.831 339.726 169.635C339.913 169.439 340.062 169.207 340.164 168.951C340.266 168.694 340.318 168.42 340.318 168.143C340.318 167.865 340.266 167.591 340.165 167.335C340.063 167.078 339.915 166.846 339.727 166.65C339.54 166.454 339.317 166.298 339.072 166.192C338.827 166.086 338.565 166.032 338.3 166.032H297.391C297.126 166.032 296.863 166.086 296.618 166.191C296.373 166.297 296.15 166.452 295.963 166.648C295.775 166.844 295.626 167.077 295.524 167.333C295.423 167.589 295.37 167.863 295.37 168.141C295.37 168.418 295.422 168.692 295.524 168.949C295.625 169.205 295.774 169.438 295.961 169.634C296.149 169.83 296.371 169.985 296.616 170.091C296.861 170.197 297.124 170.251 297.389 170.251H338.298Z" fill="white"/>
<path d="M338.297 157.823C338.832 157.823 339.345 157.601 339.723 157.205C340.101 156.81 340.314 156.273 340.314 155.714C340.314 155.154 340.101 154.618 339.723 154.222C339.345 153.827 338.832 153.604 338.297 153.604H297.391C296.856 153.604 296.343 153.826 295.964 154.221C295.586 154.617 295.373 155.153 295.373 155.713C295.373 156.272 295.585 156.809 295.963 157.205C296.341 157.6 296.854 157.823 297.389 157.823H338.297Z" fill="white"/>
<path d="M317.844 118.407C320.354 118.407 322.808 119.186 324.895 120.645C326.983 122.104 328.61 124.178 329.57 126.604C330.531 129.03 330.783 131.7 330.293 134.275C329.803 136.851 328.594 139.217 326.819 141.073C325.044 142.93 322.782 144.195 320.32 144.707C317.858 145.219 315.305 144.957 312.986 143.952C310.667 142.947 308.684 141.245 307.29 139.061C305.895 136.878 305.15 134.311 305.15 131.685C305.154 128.165 306.493 124.79 308.872 122.301C311.252 119.812 314.478 118.411 317.844 118.407Z" fill="white"/>
<path d="M155.889 253.076H118.206C117.431 253.075 116.688 252.752 116.14 252.179C115.591 251.606 115.283 250.829 115.282 250.018V233.027C115.282 226.989 117.575 221.198 121.657 216.929C125.739 212.659 131.275 210.26 137.047 210.26C142.82 210.26 148.356 212.659 152.438 216.929C156.519 221.198 158.812 226.989 158.812 233.027V250.018C158.811 250.829 158.503 251.606 157.955 252.179C157.407 252.753 156.664 253.075 155.889 253.076Z" fill="#2F2E41"/>
<path d="M155.21 243.367C159.437 235.278 156.595 225.136 148.862 220.714C141.129 216.292 131.433 219.265 127.206 227.354C122.979 235.443 125.821 245.585 133.554 250.007C141.287 254.429 150.982 251.456 155.21 243.367Z" fill="#FFB6B6"/>
<path d="M163.962 234.726H140.92L140.683 231.266L139.502 234.726H135.954L135.486 227.868L133.144 234.726H126.279V234.387C126.284 229.612 128.099 225.034 131.327 221.658C134.555 218.282 138.931 216.382 143.496 216.377H146.744C151.309 216.382 155.685 218.282 158.913 221.658C162.141 225.034 163.956 229.612 163.962 234.387V234.726Z" fill="#2F2E41"/>
<path d="M140.731 256.248C140.557 256.247 140.384 256.231 140.213 256.2L123.341 253.086V223.917H141.914L141.454 224.478C135.057 232.283 139.877 244.938 143.319 251.788C143.573 252.289 143.686 252.856 143.645 253.422C143.605 253.988 143.412 254.53 143.09 254.987C142.82 255.377 142.466 255.695 142.055 255.914C141.645 256.133 141.191 256.248 140.731 256.248Z" fill="#2F2E41"/>
<path d="M196.906 400.26L217.723 400.259H217.724C221.242 400.26 224.616 401.722 227.104 404.324C229.592 406.926 230.99 410.456 230.99 414.136V414.587L196.907 414.588L196.906 400.26Z" fill="#2F2E41"/>
<path d="M484.455 416H0.544944C0.400416 416 0.261807 415.94 0.15961 415.833C0.0574131 415.726 0 415.581 0 415.43C0 415.279 0.0574131 415.134 0.15961 415.027C0.261807 414.92 0.400416 414.86 0.544944 414.86H484.455C484.6 414.86 484.738 414.92 484.84 415.027C484.943 415.134 485 415.279 485 415.43C485 415.581 484.943 415.726 484.84 415.833C484.738 415.94 484.6 416 484.455 416Z" fill="#CACACA"/>
</g>
<defs>
<clipPath id="clip0_17_241">
<rect width="485" height="416" fill="white"/>
</clipPath>
</defs>
</svg>
