<svg width="475" height="530" viewBox="0 0 475 530" fill="none" xmlns="http://www.w3.org/2000/svg">
<g clip-path="url(#clip0_10_13)">
<path d="M269.281 408.374C382.896 408.374 475 316.956 475 204.187C475 91.4176 382.896 0 269.281 0C155.665 0 63.5612 91.4176 63.5612 204.187C63.5612 316.956 155.665 408.374 269.281 408.374Z" fill="#F2F2F2"/>
<path d="M403.715 91.312H26.8655C26.0574 91.2949 25.4163 90.6308 25.4336 89.8287C25.4504 89.0508 26.0817 88.4241 26.8655 88.4075H403.715C404.523 88.4246 405.164 89.0887 405.147 89.8908C405.13 90.6687 404.499 91.2954 403.715 91.312Z" fill="#CACACA"/>
<path d="M275.285 140.256H171.11C163.285 140.256 156.942 146.552 156.942 154.319V154.319C156.942 162.085 163.285 168.381 171.11 168.381H275.285C283.11 168.381 289.454 162.085 289.454 154.319C289.454 146.552 283.11 140.256 275.285 140.256Z" fill="white"/>
<path d="M103.811 196.506H342.584C350.409 196.506 356.752 202.802 356.752 210.569C356.752 218.335 350.409 224.631 342.584 224.631H103.811C95.9865 224.631 89.6432 218.335 89.6432 210.569C89.6432 202.802 95.9865 196.506 103.811 196.506Z" fill="white"/>
<path d="M103.811 252.756H342.584C350.409 252.756 356.752 259.052 356.752 266.819C356.752 274.585 350.409 280.881 342.584 280.881H103.811C95.9865 280.881 89.6432 274.585 89.6432 266.819C89.6432 259.052 95.9865 252.756 103.811 252.756Z" fill="white"/>
<path d="M74.2216 528.763L73.6597 528.709C54.5936 526.756 37.358 516.579 26.5317 500.879C23.5663 496.505 21.1677 491.777 19.3923 486.808L19.2217 486.334L19.7269 486.294C25.7583 485.812 31.9545 484.796 34.707 484.313L16.9578 478.344L16.8481 477.821C15.7958 472.914 17.8574 467.865 22.0547 465.07C26.2633 462.14 31.8444 462.046 36.1505 464.833C38.083 466.058 40.1042 467.272 42.0588 468.445C48.7756 472.478 55.7212 476.648 60.9285 482.354C68.8248 491.179 72.286 503.07 70.3479 514.715L74.2216 528.763Z" fill="#F2F2F2"/>
<path d="M138.739 520.002L147.486 520.001L151.649 486.51L138.737 486.511L138.739 520.002Z" fill="#A0616A"/>
<path d="M138.431 529.06L165.332 529.059V528.721C165.331 522.982 160.644 518.329 154.861 518.329H154.86L149.947 514.629L140.779 518.329L138.43 518.329L138.431 529.06Z" fill="#2F2E41"/>
<path d="M68.6335 495.953L75.6303 501.163L99.2095 476.853L88.8814 469.163L68.6335 495.953Z" fill="#A0616A"/>
<path d="M62.91 503.015L84.4287 519.038L84.6329 518.768C88.1028 514.177 87.1663 507.663 82.5411 504.218L82.5405 504.218L80.8472 498.331L71.2761 495.83L69.3976 494.431L62.91 503.015H62.91Z" fill="#2F2E41"/>
<path d="M97.7123 362.836C97.7123 362.836 98.1952 375.911 98.8043 386.396C98.9042 388.115 94.8453 389.983 94.9504 391.854C95.0201 393.095 95.7831 394.302 95.854 395.596C95.9288 396.962 94.8754 398.171 94.9504 399.583C95.0237 400.963 96.2254 402.546 96.2979 403.958C97.078 419.159 99.9058 437.357 97.0741 442.444C95.6786 444.951 77.8909 479.683 77.8909 479.683C77.8909 479.683 87.8016 494.439 90.6333 489.52C94.3732 483.024 123.197 452.632 123.197 446.828C123.197 441.031 129.865 397.588 129.865 397.588L134.515 423.297L136.647 428.391L135.977 431.382L137.355 435.417L137.43 439.411L138.771 446.828C138.771 446.828 134.736 504.613 137.008 506.222C139.288 507.838 150.324 510.74 151.626 507.838C152.922 504.936 161.354 447.531 161.354 447.531C161.354 447.531 162.713 421.224 164.186 396.773C164.271 395.353 165.276 393.639 165.354 392.241C165.446 390.618 164.809 388.51 164.894 386.936C164.986 385.13 165.793 383.858 165.871 382.13C166.472 368.773 163.095 352.507 162.019 350.905C158.769 346.071 155.846 342.207 155.846 342.207C155.846 342.207 112.081 327.934 100.387 342.437L97.7123 362.836L97.7123 362.836Z" fill="#2F2E41"/>
<path d="M141.361 228.387L124.012 224.943L115.916 235.849C100.809 250.593 100.581 263.605 103.278 284.463V313.737L101.326 333.361C101.326 333.361 94.4164 347.707 101.543 351.047C108.67 354.387 155.483 354.102 159.952 352.769C164.422 351.435 160.548 349.799 159.374 343.585C157.169 331.913 158.644 337.543 158.796 333.827C160.971 280.518 155.904 258.633 155.39 252.881L146.566 236.997L141.361 228.387Z" fill="#3F3D56"/>
<path d="M232.802 271.368C230.994 274.769 226.751 276.071 223.325 274.276C222.96 274.085 222.612 273.862 222.286 273.61L184.819 297.222L184.927 284.366L221.324 263.402C223.916 260.517 228.374 260.264 231.281 262.838C233.713 264.991 234.342 268.518 232.802 271.368Z" fill="#A0616A"/>
<path d="M127.663 243.275L123.398 242.827C119.456 242.421 115.589 244.096 113.209 247.241C112.298 248.433 111.643 249.799 111.286 251.253L111.283 251.265C110.213 255.643 111.892 260.23 115.542 262.906L130.275 273.687C140.614 287.553 160.044 296.753 182.837 304.227L218.265 282.388L205.734 267.324L181.434 280.251L145.313 252.497L145.292 252.481L131.544 243.689L127.663 243.275L127.663 243.275Z" fill="#3F3D56"/>
<path d="M135.499 219.931C146.673 219.931 155.731 210.941 155.731 199.85C155.731 188.76 146.673 179.769 135.499 179.769C124.326 179.769 115.268 188.76 115.268 199.85C115.268 210.941 124.326 219.931 135.499 219.931Z" fill="#A0616A"/>
<path d="M135.967 219.935C135.804 219.941 135.64 219.944 135.477 219.949C135.407 220.129 135.332 220.307 135.245 220.482L135.967 219.935V219.935Z" fill="#2F2E41"/>
<path d="M141.519 200.407C141.551 200.605 141.599 200.8 141.664 200.99C141.637 200.791 141.589 200.596 141.519 200.407Z" fill="#2F2E41"/>
<path d="M155.989 180.628C155.156 183.195 154.413 179.939 151.674 180.525C148.378 181.229 144.543 180.987 141.845 178.982C137.824 176.054 132.613 175.266 127.895 176.872C123.277 178.494 115.541 179.637 114.338 184.35C113.92 185.988 113.754 187.766 112.74 189.123C111.853 190.31 110.454 190.987 109.285 191.901C105.334 194.986 108.354 203.75 110.223 208.381C112.093 213.012 116.381 216.385 121.096 218.113C125.659 219.785 130.61 220.08 135.477 219.949C136.323 217.77 135.958 215.253 135.259 212.994C134.503 210.549 133.383 208.188 133.068 205.65C132.752 203.111 133.445 200.227 135.59 198.809C137.561 197.505 140.769 198.299 141.519 200.407C141.082 197.772 143.771 195.221 146.545 194.773C149.522 194.291 152.5 195.358 155.469 195.89C158.438 196.421 157.384 184.014 155.989 180.628Z" fill="#2F2E41"/>
<path d="M269.14 233.068C271.026 210.449 254.081 190.596 231.292 188.724C208.504 186.852 188.502 203.67 186.616 226.289C184.729 248.908 201.674 268.761 224.463 270.633C247.251 272.505 267.254 255.687 269.14 233.068Z" fill="#F53333"/>
<path d="M238.753 212.556L227.877 223.351L217.002 212.556C215.241 210.808 212.387 210.808 210.626 212.556C208.866 214.303 208.866 217.136 210.626 218.884L221.502 229.679L210.626 240.473C208.867 242.222 208.87 245.056 210.632 246.801C212.392 248.545 215.242 248.545 217.002 246.801L227.877 236.007L238.753 246.801C240.516 248.547 243.37 248.545 245.129 246.795C246.885 245.049 246.885 242.22 245.129 240.473L234.253 229.679L245.129 218.884C246.889 217.136 246.889 214.303 245.129 212.556C243.368 210.808 240.514 210.808 238.753 212.556Z" fill="white"/>
<path d="M211.562 195.138C212.782 198.788 210.791 202.728 207.115 203.939C206.723 204.068 206.32 204.163 205.911 204.222L197.139 247.404L187.868 238.426L197.824 197.844C197.521 193.99 200.424 190.622 204.307 190.322C207.556 190.071 210.555 192.062 211.562 195.138Z" fill="#A0616A"/>
<path d="M118.35 250.993L115.07 253.738C112.047 256.28 110.588 260.209 111.226 264.091C111.462 265.569 112.002 266.984 112.812 268.246L112.818 268.256C115.26 272.053 119.757 274.027 124.23 273.265L142.268 270.177C159.506 272.372 179.647 264.824 200.859 253.673L209.509 213.179L189.882 211.725L182.457 238.079L137.273 244.736L137.247 244.74L121.337 248.5L118.35 250.993L118.35 250.993Z" fill="#3F3D56"/>
<path d="M221.057 529.753L0.961241 530C0.428647 529.998 -0.00171996 529.568 5.16831e-06 529.04C0.0017141 528.514 0.431068 528.087 0.961241 528.086L221.057 527.839C221.589 527.84 222.02 528.27 222.018 528.799C222.016 529.325 221.587 529.751 221.057 529.753Z" fill="#CACACA"/>
<path d="M45.9846 72.9152C49.7673 72.9152 52.8338 69.8037 52.8338 65.9655C52.8338 62.1273 49.7673 59.0159 45.9846 59.0159C42.2019 59.0159 39.1355 62.1273 39.1355 65.9655C39.1355 69.8037 42.2019 72.9152 45.9846 72.9152Z" fill="#3F3D56"/>
<path d="M69.6454 72.9152C73.4281 72.9152 76.4946 69.8037 76.4946 65.9655C76.4946 62.1273 73.4281 59.0159 69.6454 59.0159C65.8627 59.0159 62.7962 62.1273 62.7962 65.9655C62.7962 69.8037 65.8627 72.9152 69.6454 72.9152Z" fill="#3F3D56"/>
<path d="M93.3062 72.9152C97.0889 72.9152 100.155 69.8037 100.155 65.9655C100.155 62.1273 97.0889 59.0159 93.3062 59.0159C89.5235 59.0159 86.457 62.1273 86.457 65.9655C86.457 69.8037 89.5235 72.9152 93.3062 72.9152Z" fill="#3F3D56"/>
<path d="M120.286 71.4583C120.075 71.4583 119.865 71.3774 119.707 71.2165L115.085 66.5274C114.777 66.215 114.777 65.7157 115.085 65.4033L119.707 60.7146C120.02 60.3974 120.534 60.3923 120.852 60.702C121.172 61.0125 121.177 61.5216 120.865 61.8388L116.797 65.9653L120.865 70.0923C121.177 70.4095 121.172 70.9186 120.852 71.2291C120.695 71.3822 120.49 71.4583 120.286 71.4583Z" fill="#3F3D56"/>
<path d="M128.052 71.4583C127.847 71.4583 127.643 71.3822 127.485 71.2291C127.165 70.9186 127.16 70.4099 127.473 70.0923L131.54 65.9654L127.473 61.8388C127.16 61.5216 127.165 61.0125 127.485 60.702C127.804 60.3911 128.318 60.397 128.63 60.7146L133.252 65.4033C133.56 65.7157 133.56 66.215 133.252 66.5274L128.63 71.2165C128.472 71.3775 128.262 71.4583 128.052 71.4583Z" fill="#3F3D56"/>
<path d="M369.82 59.8205H361.227C360.247 59.8205 359.453 60.6083 359.453 61.581V70.1182C359.453 71.091 360.247 71.8787 361.227 71.8787H369.82C370.8 71.8787 371.602 71.091 371.602 70.1182V61.581C371.602 60.6083 370.8 59.8205 369.82 59.8205Z" fill="#3F3D56"/>
<path d="M348.762 59.8205H340.169C339.189 59.8205 338.395 60.6083 338.395 61.581V70.1182C338.395 71.091 339.189 71.8787 340.169 71.8787H348.762C349.742 71.8787 350.544 71.091 350.544 70.1182V61.581C350.544 60.6083 349.742 59.8205 348.762 59.8205Z" fill="#3F3D56"/>
<path d="M389.663 60.2224H381.07C380.09 60.2224 379.296 61.0102 379.296 61.9829V70.5202C379.296 71.4929 380.09 72.2807 381.07 72.2807H389.663C390.643 72.2807 391.445 71.4929 391.445 70.5202V61.9829C391.445 61.0102 390.643 60.2224 389.663 60.2224Z" fill="#3F3D56"/>
<path d="M260.14 63.4701H191.45C190.252 63.4701 189.288 64.4348 189.288 65.6165C189.288 66.7982 190.252 67.7629 191.45 67.7629H260.14C261.33 67.7629 262.302 66.7982 262.302 65.6165C262.302 64.4348 261.33 63.4701 260.14 63.4701Z" fill="#3F3D56"/>
</g>
<defs>
<clipPath id="clip0_10_13">
<rect width="475" height="530" fill="white"/>
</clipPath>
</defs>
</svg>
